<svg width="1024.000000" height="1024.000000" viewBox="0 0 1024 1024" fill="none" xmlns="http://www.w3.org/2000/svg" xmlns:xlink="http://www.w3.org/1999/xlink">
	<desc>
			Created with Pixso.
	</desc>
	<defs>
		<linearGradient x1="1024.000000" y1="512.000000" x2="0.000000" y2="512.000000" id="paint_linear_10_38_0" gradientUnits="userSpaceOnUse">
			<stop stop-color="#F73737"/>
			<stop offset="1.000000" stop-color="#FFBF19"/>
		</linearGradient>
	</defs>
	<path id="渐变" d="M1024 512C1024 229.23 794.77 0 512 0C229.23 0 0 229.23 0 512C0 794.77 229.23 1024 512 1024C794.77 1024 1024 794.77 1024 512ZM229.431 198.507Q233.265 201.456 239.367 201.456L289.758 201.456Q293.307 201.456 296.55 200.458Q300.623 199.205 304.211 196.378Q307.72 193.506 309.782 189.825Q311.507 186.744 312.219 183.096L321.789 139.737Q322.869 134.202 321.057 129.881Q320.247 127.949 318.859 126.26Q317.809 124.875 316.49 123.829Q312.413 120.596 305.773 120.596L256.164 120.596Q252.675 120.596 249.557 121.672Q245.518 123.064 242.102 126.26Q239.446 128.739 237.672 131.74Q235.534 135.359 234.68 139.737L224.133 183.096Q223.455 190.046 226.307 194.936Q226.742 195.681 227.258 196.378Q228.234 197.586 229.431 198.507ZM377.48 840.972Q426.064 860.015 493.936 860.015Q567.91 860.015 621.865 840.972Q676.064 821.929 714.395 789.946Q752.969 757.964 776.406 717.925Q800.088 677.886 812.051 635.894Q813.437 629.656 811.257 625.139Q810.365 623.292 808.877 621.733Q807.749 620.436 806.399 619.438Q801.906 616.118 794.961 616.118L753.604 616.118Q767.449 614.368 778.945 609.202Q790.38 604.091 799.727 596.43Q804.667 592.381 809.023 587.62Q812.391 583.938 815.446 580.011L815.452 580.003Q823.816 569.249 829.823 556.663Q835.874 543.914 840.065 530.581L840.067 530.574L840.076 530.545Q841.561 525.818 842.812 521.018Q844.765 514.573 845.937 509.007Q847.206 503.44 847.988 496.995Q851.21 477.854 848.964 460.667Q846.816 443.382 839.003 430.003Q837.105 426.752 834.792 423.83Q827.584 414.725 816.347 408.811Q801.601 400.999 779.628 400.999Q754.042 400.999 738.808 409.788Q723.573 418.577 710.781 431.858L714.394 414.182Q715.014 411.001 713.847 408.744Q713.545 408.161 713.124 407.639Q712.609 406.943 711.95 406.431L711.949 406.43Q710.114 405.003 707.167 405.003L688.808 405.003Q686.828 405.003 685.086 405.648Q683.306 406.307 681.777 407.639Q680.721 408.554 679.931 409.659Q678.53 411.621 677.968 414.182L621.23 679.807Q620.661 682.721 621.696 684.859Q622.083 685.659 622.695 686.35Q623.308 687.103 624.072 687.64Q625.985 688.987 628.847 688.987L648.378 688.987Q650.358 688.987 652.1 688.342Q653.879 687.683 655.409 686.35Q656.706 685.263 657.591 683.906Q658.771 682.096 659.218 679.807L679.238 587.034Q679.571 587.668 679.923 588.291L679.944 588.328Q686.698 600.265 700.136 608.421Q712.22 615.704 731.601 616.815Q728.662 617.483 726.044 618.792Q724.165 619.732 722.451 621.001Q716.104 625.884 710 639.067Q676.064 716.948 621.865 746.001Q567.91 775.054 498.086 775.054Q427.496 775.054 391.434 739.767L391.405 739.739Q386.574 735.008 382.363 729.644Q346.963 683.989 365.029 583.892Q379.922 497.954 400.918 415.923Q425.088 316.069 484.414 270.659Q504.929 254.936 527.877 244.628Q571.562 225.005 624.062 225.005Q693.887 225.005 734.902 255.523Q740.472 259.666 745.177 264.63L745.178 264.631L745.179 264.632Q775.122 296.22 770.059 360.991Q770.059 373.9 776.376 379.033L776.406 379.058Q776.65 379.238 776.897 379.411Q783.368 383.94 793.008 383.94L849.893 383.94Q856.461 383.94 860.835 380.842Q862.476 379.68 863.809 378.081Q864.484 377.278 865.086 376.423Q869.064 370.788 869.912 362.944Q875.974 330.616 871.256 299.946L871.255 299.943L871.255 299.942Q869.702 289.849 866.982 279.937Q864.076 269.344 859.837 259.315L859.817 259.269Q848.033 231.417 825.967 207.915Q795.938 175.933 746.377 158.11Q697.061 140.044 627.969 140.044Q535.928 140.044 470.01 173.98Q434.88 192.065 406.822 217.847L406.822 217.848Q382.233 240.443 363.076 268.95Q322.061 329.985 302.041 411.04Q292.031 454.009 281.533 501.128Q271.035 548.003 263.955 589.019Q252.969 650.054 262.49 699.614Q270.763 742.462 293.226 775.727L293.228 775.73Q296.619 780.75 300.332 785.552Q302.724 788.597 305.255 791.521L305.257 791.523Q332.966 823.524 377.48 840.972ZM731.601 616.815Q735.086 617.014 738.808 617.014Q746.514 617.014 753.604 616.118L738.076 616.118Q734.665 616.118 731.601 616.815ZM131.025 692.245Q135.02 695.01 140.93 695.01L179.406 695.01Q183.938 695.01 187.781 693.384Q190.73 692.137 193.273 689.932Q195.98 687.575 197.828 684.671Q200.114 681.079 201.086 676.651L280.969 297.354Q282.33 290.379 279.689 285.626Q279.299 284.923 278.82 284.268Q277.855 282.821 276.566 281.77Q273.16 278.995 267.492 278.995L229.016 278.995Q225.703 278.995 222.659 279.897Q218.342 281.176 214.562 284.268Q211.264 286.867 209.244 290.233Q207.318 293.444 206.555 297.354L125.891 676.651Q124.595 682.555 126.59 686.972Q127.301 688.547 128.43 689.932Q129.607 691.263 131.025 692.245ZM596.784 366.233Q593.732 366.233 591.815 364.758Q591.217 364.298 590.729 363.694Q590.471 363.346 590.254 362.973Q588.827 360.528 589.167 357.053L594.44 335.374Q594.867 333.185 595.936 331.375Q596.823 329.875 598.151 328.635Q599.859 327.037 601.878 326.341Q603.438 325.803 605.182 325.803L629.987 325.803Q633.307 325.803 635.345 327.42Q636.005 327.943 636.53 328.635Q637.223 329.48 637.628 330.446Q638.534 332.606 637.995 335.374L633.209 357.053Q632.854 358.877 631.991 360.418Q630.96 362.259 629.206 363.694Q627.411 365.108 625.375 365.734Q623.754 366.233 621.979 366.233L596.784 366.233ZM449.965 613.01Q447.01 613.01 445.012 611.628Q444.303 611.136 443.715 610.471Q443.15 609.779 442.795 608.991Q441.797 606.783 442.445 603.831L499.184 338.206Q499.63 335.917 500.811 334.107L500.811 334.106Q501.696 332.75 502.992 331.663Q504.522 330.33 506.301 329.671L506.302 329.671Q508.043 329.026 510.023 329.026L529.164 329.026Q532.111 329.026 533.946 330.454L533.947 330.455Q534.605 330.967 535.121 331.663Q535.542 332.184 535.844 332.768Q537.011 335.024 536.391 338.206L480.043 603.831Q479.557 606.045 478.414 607.841Q477.49 609.293 476.137 610.471Q474.865 611.574 473.391 612.197Q471.469 613.01 469.203 613.01L449.965 613.01ZM547.565 613.01Q544.61 613.01 542.612 611.628Q541.903 611.137 541.315 610.471Q540.75 609.779 540.395 608.991Q539.397 606.783 540.045 603.831L580.377 414.182Q580.759 412.228 581.722 410.623L581.722 410.622Q582.732 408.939 584.381 407.639Q586.271 406.093 588.429 405.454Q589.952 405.003 591.608 405.003L610.846 405.003Q613.68 405.003 615.383 406.39L615.384 406.391Q616.028 406.916 616.51 407.639Q616.748 407.965 616.943 408.315L616.945 408.318Q618.265 410.695 617.584 414.182L577.643 603.831Q577.157 606.044 576.014 607.841Q575.09 609.293 573.737 610.471Q572.465 611.574 570.99 612.197Q569.068 613.01 566.803 613.01L547.565 613.01ZM734.804 584.592Q753.1 584.592 766.45 576.466Q767.137 576.048 767.812 575.608Q771.279 573.346 774.442 570.719Q783.844 562.911 790.566 551.878Q797.443 540.637 801.856 528.5L801.857 528.499Q803.271 524.609 804.433 520.628Q806.386 514.573 807.558 509.007Q808.827 503.44 809.609 497.385Q811.952 480.589 810.195 466.038Q808.757 454.06 802.423 445.87L802.421 445.867Q801.009 444.042 799.355 442.405Q790.37 433.421 771.23 433.421Q752.929 433.421 738.79 441.092L738.77 441.103Q737.452 441.818 736.171 442.6Q726.756 448.385 719.512 456.186Q715.261 460.764 711.757 466.038Q702.382 480.198 698.378 495.042Q696.816 501.389 694.96 510.178Q693.202 518.967 692.031 525.803Q690.511 534.495 690.996 543.073L690.997 543.074L690.997 543.078Q691.292 548.28 692.323 553.44Q693.959 561.281 698.039 567.525Q701.022 572.091 705.312 575.803Q715.566 584.592 734.804 584.592Z" clip-rule="evenodd" fill="url(#paint_linear_10_38_0)" fill-opacity="1.000000" fill-rule="evenodd"/>
</svg>
