<svg width="1024.000000" height="1024.000000" viewBox="0 0 1024 1024" fill="none" xmlns="http://www.w3.org/2000/svg" xmlns:xlink="http://www.w3.org/1999/xlink">
	<desc>
			Created with Pixso.
	</desc>
	<defs/>
	<path id="白色" d="M1024 512C1024 229.23 794.77 0 512 0C229.23 0 0 229.23 0 512C0 794.77 229.23 1024 512 1024C794.77 1024 1024 794.77 1024 512ZM244.698 846.318C247.893 848.776 252.034 850.005 257.119 850.005L311.074 850.005C316.561 850.005 321.363 848.817 325.48 846.442C326.858 845.647 328.16 844.719 329.385 843.657C331.712 841.63 333.642 839.36 335.173 836.848L335.18 836.836C336.964 833.906 338.206 830.646 338.906 827.056L391.885 577.056L577.92 577.056C653.278 577.056 714.964 559.233 762.979 523.589C769.592 518.679 775.895 513.436 781.888 507.86C819.403 472.949 844.757 424.97 857.949 363.921C865.273 328.602 865.762 297.677 859.414 271.147C854.741 251.499 846.894 234.187 835.871 219.212L835.87 219.21L835.869 219.209C831.918 213.842 827.56 208.775 822.793 204.009C804.889 185.942 781.452 172.433 752.48 163.482C723.509 154.53 689.98 150.054 651.895 150.054L405.068 150.054C401.768 150.054 398.667 150.591 395.764 151.666L395.762 151.667C392.797 152.765 390.04 154.425 387.49 156.646C386.249 157.687 385.12 158.822 384.106 160.05C380.996 163.815 378.95 168.458 377.969 173.98L239.053 827.056C237.992 832.49 238.443 837.168 240.405 841.091L240.406 841.094C240.853 841.988 241.379 842.842 241.982 843.657C242.79 844.657 243.688 845.539 244.678 846.302L244.698 846.318ZM225.769 201.695C227.367 202.924 229.437 203.538 231.979 203.538L263.474 203.538C264.953 203.538 266.368 203.331 267.719 202.915C269.416 202.393 271.012 201.543 272.507 200.365C273.969 199.168 275.13 197.803 275.989 196.269C276.708 194.986 277.215 193.584 277.512 192.064L283.493 164.964C283.943 162.658 283.791 160.605 283.035 158.804C282.698 157.999 282.24 157.245 281.662 156.541C281.224 155.964 280.731 155.458 280.181 155.022C278.483 153.675 276.25 153.001 273.483 153.001L242.478 153.001C241.024 153.001 239.647 153.225 238.348 153.673C236.665 154.254 235.112 155.21 233.688 156.541C232.582 157.574 231.659 158.716 230.92 159.966C230.029 161.474 229.406 163.14 229.05 164.964L222.458 192.064C222.176 194.96 222.629 197.426 223.817 199.464C223.998 199.774 224.196 200.074 224.411 200.365C224.818 200.868 225.27 201.312 225.769 201.695ZM575.967 493.071L408.975 493.071L463.906 234.038L641.885 234.038C680.622 234.038 709.268 239.246 727.822 249.663C739.615 256.123 748.338 264.328 753.993 274.276C757.314 280.119 759.577 286.563 760.781 293.608C764.199 312.489 763.304 335.926 758.096 363.921C751.902 391.471 740.699 414.748 724.487 433.752L724.486 433.753L724.482 433.758C715.985 443.716 706.112 452.501 694.863 460.112C693.885 460.772 692.901 461.423 691.91 462.063L691.899 462.07C691.839 462.109 691.779 462.148 691.718 462.187C659.769 482.776 621.185 493.071 575.967 493.071ZM164.266 510.281C165.93 511.434 167.994 512.01 170.456 512.01L194.504 512.01C196.392 512.01 198.137 511.671 199.738 510.994C200.967 510.474 202.111 509.755 203.171 508.836C204.299 507.854 205.248 506.758 206.018 505.548C206.97 504.051 207.649 502.38 208.054 500.536L257.98 263.475C258.548 260.569 258.281 258.125 257.181 256.145C257.018 255.852 256.837 255.569 256.638 255.296C256.236 254.693 255.766 254.173 255.229 253.735C253.81 252.579 251.919 252 249.558 252L225.51 252C224.13 252 222.805 252.188 221.537 252.564C219.738 253.097 218.051 254.008 216.477 255.296C215.102 256.379 213.994 257.622 213.153 259.024C212.35 260.362 211.79 261.846 211.472 263.475L161.057 500.536C160.517 502.995 160.662 505.146 161.494 506.986C161.79 507.642 162.173 508.259 162.644 508.836C163.134 509.391 163.675 509.872 164.266 510.281ZM436.938 801.564C427.562 801.564 419.792 799.898 413.625 796.564C409.356 794.241 405.785 791.341 402.913 787.864C401.664 786.352 400.547 784.731 399.562 783.002C396.354 777.294 394.354 770.773 393.562 763.439C392.812 756.106 393.021 748.335 394.188 740.127C394.729 737.377 395.25 734.814 395.75 732.439C396.25 730.064 396.854 727.502 397.562 724.752C399.604 716.752 402.333 709.127 405.75 701.877C408.506 695.995 411.845 690.574 415.767 685.614C416.707 684.425 417.681 683.263 418.688 682.127C420.263 680.349 421.94 678.688 423.718 677.143L423.719 677.143C427.817 673.582 432.453 670.639 437.625 668.314C445.042 664.981 453.688 663.314 463.562 663.314C474.521 663.314 482.771 665.148 488.312 668.814C493.204 672.051 497.138 675.92 500.114 680.422C500.509 681.021 500.888 681.631 501.25 682.252L503.25 671.752C503.49 670.659 503.909 669.694 504.507 668.857C504.844 668.386 505.237 667.955 505.688 667.564C506.099 667.206 506.541 666.904 507.012 666.66C508.019 666.138 509.161 665.877 510.438 665.877L521.938 665.877C523.158 665.877 524.177 666.164 524.994 666.739C525.32 666.968 525.614 667.243 525.875 667.564C526.136 667.859 526.349 668.178 526.514 668.519C526.956 669.431 527.055 670.509 526.812 671.752L500.938 793.127C500.758 794.045 500.441 794.88 499.984 795.63L499.984 795.631C499.591 796.275 499.097 796.857 498.5 797.377C497.957 797.847 497.372 798.215 496.742 798.482C495.922 798.828 495.029 799.002 494.062 799.002L482.25 799.002C481.029 799.002 480.02 798.711 479.223 798.129C478.933 797.917 478.671 797.666 478.438 797.377C478.283 797.168 478.148 796.949 478.034 796.72C477.531 795.716 477.416 794.518 477.688 793.127L480 782.377C474.708 787.835 468.938 792.398 462.688 796.064C456.479 799.731 447.896 801.564 436.938 801.564ZM533.766 847.627C532.545 847.627 531.526 847.34 530.71 846.765C530.384 846.536 530.09 846.26 529.828 845.939C529.568 845.644 529.354 845.326 529.189 844.985C528.748 844.073 528.648 842.995 528.891 841.752L565.203 671.752C565.443 670.659 565.862 669.694 566.46 668.857L566.461 668.856C566.797 668.385 567.191 667.955 567.641 667.564C568.293 666.996 569 666.571 569.759 666.29C570.502 666.014 571.296 665.877 572.141 665.877L583.891 665.877C585.148 665.877 586.168 666.182 586.952 666.791C587.233 667.009 587.483 667.267 587.703 667.564C587.883 667.787 588.038 668.023 588.166 668.272C588.664 669.234 588.781 670.395 588.516 671.752L586.203 683.064C591.662 677.398 597.641 672.689 604.141 668.939C610.641 665.189 619.349 663.314 630.266 663.314C639.641 663.314 647.474 664.981 653.766 668.314C658.561 670.838 662.495 674.042 665.571 677.926L665.576 677.934C666.561 679.178 667.458 680.493 668.266 681.877C671.599 687.585 673.724 694.127 674.641 701.502C675.599 708.835 675.391 716.585 674.016 724.752C673.683 727.502 673.245 730.064 672.703 732.439C672.203 734.814 671.537 737.377 670.703 740.127C670.168 742.181 669.583 744.22 668.947 746.243L668.946 746.244C667.158 751.934 664.973 757.499 662.391 762.939C659.828 768.309 656.763 773.287 653.195 777.875L653.193 777.877L653.186 777.886C651.884 779.56 650.515 781.182 649.078 782.752C647.22 784.783 645.237 786.663 643.129 788.39C639.142 791.659 634.708 794.384 629.828 796.564C622.412 799.898 613.849 801.564 604.141 801.564C593.724 801.564 585.474 799.731 579.391 796.064C573.658 792.585 569.35 788.298 566.468 783.205C566.313 782.932 566.163 782.655 566.016 782.377L553.203 841.752C553.013 842.728 552.666 843.603 552.162 844.375C551.785 844.954 551.319 845.475 550.766 845.939C550.114 846.508 549.407 846.933 548.648 847.214C547.905 847.489 547.111 847.627 546.266 847.627L533.766 847.627ZM746.205 801.564C734.455 801.564 724.768 799.085 717.143 794.127C714.289 792.261 711.766 790.1 709.572 787.644C705.938 783.573 703.212 778.693 701.393 773.002C698.518 763.877 697.934 753.169 699.643 740.877C699.976 738.669 700.518 735.814 701.268 732.314C702.059 728.814 702.788 725.96 703.455 723.752C706.872 711.627 711.955 701.002 718.705 691.877C723.371 685.569 728.745 680.256 734.825 675.939C737.54 674.012 740.396 672.282 743.393 670.752C745.731 669.562 748.123 668.516 750.568 667.611L750.574 667.609C758.318 664.746 766.591 663.314 775.393 663.314C788.351 663.314 798.58 666.044 806.08 671.502C808.106 672.968 809.952 674.602 811.617 676.402C816.15 681.303 819.346 687.44 821.205 694.814C823.788 704.898 823.705 716.669 820.955 730.127L819.955 734.502C819.753 735.638 819.345 736.621 818.73 737.451C818.329 737.991 817.842 738.467 817.268 738.877C816.395 739.475 815.479 739.894 814.517 740.135C813.871 740.296 813.204 740.377 812.518 740.377L724.205 740.377C724.205 740.544 724.163 740.898 724.08 741.439C723.997 741.939 723.872 742.356 723.705 742.689C722.663 749.689 722.83 756.231 724.205 762.314C725.165 766.533 726.846 770.193 729.249 773.294L729.25 773.296C730.288 774.635 731.46 775.871 732.768 777.002C733.138 777.319 733.518 777.623 733.908 777.913C738.129 781.056 743.52 782.627 750.08 782.627C756.205 782.627 761.518 781.689 766.018 779.814C770.559 777.939 774.268 775.856 777.143 773.564C780.059 771.231 782.122 769.377 783.33 768.002C785.372 765.96 786.851 764.731 787.768 764.314C788.726 763.898 790.226 763.689 792.268 763.689L804.58 763.689C805.766 763.689 806.741 763.973 807.508 764.539C807.739 764.71 807.95 764.906 808.143 765.127C808.281 765.273 808.405 765.428 808.514 765.594C809.088 766.471 809.235 767.627 808.955 769.064C808.247 771.606 806.268 774.71 803.018 778.377C799.809 782.044 795.372 785.669 789.705 789.252C784.08 792.835 777.601 795.794 770.268 798.127C762.934 800.419 754.913 801.564 746.205 801.564ZM838.865 799.002C837.605 799.002 836.548 798.707 835.696 798.117C835.393 797.907 835.117 797.661 834.865 797.377C834.625 797.082 834.429 796.767 834.278 796.432L834.277 796.43C833.851 795.487 833.777 794.386 834.053 793.127L859.865 672.002C860.005 671.285 860.237 670.617 860.56 669.995C861.007 669.135 861.63 668.367 862.428 667.689C863.305 666.919 864.249 666.394 865.261 666.115L865.263 666.115C865.838 665.956 866.435 665.877 867.053 665.877L878.803 665.877C879.91 665.877 880.851 666.131 881.626 666.638C882.046 666.914 882.418 667.264 882.74 667.689C883.036 668.05 883.271 668.436 883.444 668.848C883.83 669.77 883.908 670.821 883.678 672.002L881.115 683.314C883.333 680.178 885.888 677.47 888.78 675.189L888.781 675.188C891.268 673.227 894.005 671.581 896.99 670.252C903.49 667.335 911.095 665.877 919.803 665.877L930.803 665.877C932.083 665.877 933.095 666.193 933.837 666.825C934.085 667.036 934.303 667.283 934.49 667.564C934.602 667.717 934.702 667.875 934.79 668.04C935.329 669.047 935.438 670.284 935.115 671.752L933.115 682.252C932.883 683.309 932.476 684.239 931.893 685.041C931.533 685.535 931.108 685.98 930.615 686.377C930.421 686.533 930.219 686.676 930.009 686.808L930.002 686.812C928.866 687.522 927.508 687.877 925.928 687.877L910.803 687.877C904.464 687.877 898.766 689.151 893.71 691.698C891.422 692.851 889.266 694.265 887.24 695.939C885.802 697.137 884.472 698.431 883.252 699.821L883.25 699.823C878.997 704.671 876.077 710.689 874.49 717.877L858.615 793.127C858.464 793.905 858.204 794.623 857.836 795.28C857.396 796.065 856.802 796.764 856.053 797.377C855.287 797.98 854.47 798.415 853.601 798.683C852.909 798.896 852.185 799.002 851.428 799.002L838.865 799.002ZM728.018 722.689L797.955 722.689L798.205 721.939C800.247 714.273 800.455 707.46 798.83 701.502C797.751 697.518 796.011 694.086 793.61 691.204C792.394 689.746 791.009 688.428 789.455 687.252C784.872 683.752 778.913 682.002 771.58 682.002C766.017 682.002 760.885 683.009 756.185 685.023L756.183 685.024C754.688 685.665 753.237 686.407 751.83 687.252C750.835 687.853 749.866 688.491 748.924 689.167L748.922 689.168C744.381 692.422 740.455 696.534 737.143 701.502C733.143 707.46 730.184 714.273 728.268 721.939L728.018 722.689ZM442.375 780.814C450.416 780.814 457.431 779.062 463.421 775.557L463.427 775.554C463.767 775.354 464.104 775.15 464.438 774.939C468.366 772.478 471.833 769.596 474.84 766.295C476.617 764.344 478.233 762.246 479.688 760.002C483.646 753.919 486.396 747.71 487.938 741.377C488.604 738.669 489.312 735.398 490.062 731.564C490.854 727.731 491.5 724.439 492 721.689C492.97 717.484 493.318 713.321 493.043 709.199L493.043 709.196C492.929 707.478 492.706 705.768 492.375 704.064C491.702 700.439 490.425 697.216 488.544 694.395C487.399 692.677 486.03 691.108 484.438 689.689C480.271 685.939 474 684.064 465.625 684.064C458.337 684.064 451.982 685.655 446.561 688.837C446.032 689.148 445.511 689.474 445 689.814C443.638 690.729 442.334 691.713 441.088 692.765L441.084 692.768C437.111 696.125 433.728 700.182 430.938 704.939C427.271 711.148 424.333 717.835 422.125 725.002C421.458 727.585 420.854 730.064 420.312 732.439C419.812 734.814 419.396 737.294 419.062 739.877C418.021 747.044 417.75 753.752 418.25 760.002C418.692 765.07 420.203 769.346 422.783 772.832L422.784 772.833C423.364 773.616 423.999 774.36 424.688 775.064C428.438 778.898 434.333 780.814 442.375 780.814ZM601.578 780.814C609.385 780.814 616.136 779.081 621.832 775.614C622.125 775.435 622.416 775.252 622.703 775.064C624.183 774.099 625.597 773.056 626.947 771.935C630.958 768.604 634.398 764.584 637.266 759.877C640.2 755.081 642.609 750.093 644.492 744.915L644.499 744.898C645.1 743.244 645.647 741.57 646.141 739.877C646.974 737.294 647.641 734.814 648.141 732.439C648.683 730.064 649.12 727.585 649.453 725.002C650.453 717.835 650.578 711.148 649.828 704.939C649.215 699.829 647.557 695.526 644.855 692.032L644.853 692.029C644.25 691.251 643.597 690.512 642.891 689.814C639.058 685.981 633.058 684.064 624.891 684.064C617.083 684.064 610.162 685.701 604.13 688.974C603.563 689.281 603.004 689.603 602.453 689.939C598.437 692.407 594.883 695.305 591.792 698.634C589.978 700.588 588.323 702.689 586.828 704.939C582.828 710.981 579.974 717.169 578.266 723.502C577.599 726.21 576.87 729.439 576.078 733.189C575.328 736.939 574.703 740.273 574.203 743.189C573.555 746.898 573.335 750.582 573.542 754.243C573.667 756.463 573.95 758.675 574.391 760.877C575.089 764.222 576.308 767.227 578.049 769.891L578.05 769.892C579.322 771.84 580.874 773.606 582.703 775.189C587.078 778.939 593.37 780.814 601.578 780.814Z" clip-rule="evenodd" fill="#FFFFFF" fill-opacity="1.000000" fill-rule="evenodd"/>
</svg>
