<svg width="1024.000000" height="1024.000000" viewBox="0 0 1024 1024" fill="none" xmlns="http://www.w3.org/2000/svg" xmlns:xlink="http://www.w3.org/1999/xlink">
	<desc>
			Created with Pixso.
	</desc>
	<defs/>
	<path id="白色" d="M1024 512C1024 229.23 794.77 0 512 0C229.23 0 0 229.23 0 512C0 794.77 229.23 1024 512 1024C794.77 1024 1024 794.77 1024 512ZM229.431 198.507C231.987 200.473 235.299 201.456 239.367 201.456L289.758 201.456C292.124 201.456 294.388 201.123 296.55 200.458C299.265 199.623 301.819 198.262 304.211 196.378C306.55 194.464 308.407 192.279 309.782 189.825C310.932 187.771 311.744 185.528 312.219 183.096L321.789 139.737C322.509 136.047 322.265 132.762 321.057 129.881C320.517 128.593 319.784 127.386 318.859 126.26C318.159 125.337 317.369 124.527 316.489 123.829C313.772 121.674 310.2 120.596 305.773 120.596L256.164 120.596C253.838 120.596 251.636 120.955 249.557 121.672C246.864 122.6 244.379 124.13 242.102 126.26C240.331 127.913 238.854 129.74 237.672 131.74C236.247 134.153 235.249 136.818 234.68 139.737L224.133 183.096C223.681 187.73 224.406 191.676 226.307 194.936C226.597 195.433 226.914 195.913 227.258 196.378C227.908 197.183 228.633 197.893 229.431 198.507ZM377.48 840.972C409.87 853.667 448.688 860.015 493.936 860.015C543.252 860.015 585.895 853.667 621.865 840.972C657.998 828.276 688.841 811.268 714.395 789.946C740.111 768.625 760.781 744.618 776.406 717.925C792.194 691.232 804.076 663.888 812.051 635.894C812.975 631.735 812.71 628.15 811.257 625.139C810.662 623.908 809.869 622.773 808.877 621.733C808.125 620.869 807.299 620.104 806.399 619.438C803.404 617.225 799.591 616.118 794.961 616.118L753.604 616.118C762.834 614.952 771.281 612.646 778.945 609.202C786.568 605.795 793.496 601.537 799.727 596.43C803.02 593.73 806.119 590.794 809.023 587.62C811.268 585.165 813.409 582.629 815.446 580.011L815.452 580.003C821.028 572.834 825.819 565.054 829.823 556.663C833.857 548.164 837.271 539.47 840.065 530.581L840.067 530.574L840.076 530.545C841.066 527.394 841.978 524.218 842.812 521.018C844.114 516.721 845.155 512.717 845.937 509.007C846.783 505.296 847.467 501.292 847.987 496.995C850.136 484.234 850.461 472.125 848.964 460.667C847.532 449.143 844.211 438.922 839.003 430.003C837.738 427.835 836.334 425.778 834.792 423.83C829.987 417.76 823.838 412.754 816.347 408.811C806.516 403.603 794.277 400.999 779.628 400.999C762.571 400.999 748.964 403.928 738.808 409.788C728.652 415.647 719.309 423.004 710.78 431.858L714.394 414.182C714.808 412.061 714.625 410.249 713.847 408.744C713.646 408.355 713.405 407.987 713.124 407.639C712.781 407.175 712.389 406.773 711.95 406.431L711.95 406.43C710.726 405.479 709.131 405.003 707.167 405.003L688.808 405.003C687.488 405.003 686.247 405.218 685.086 405.648C683.9 406.087 682.796 406.751 681.777 407.639C681.073 408.249 680.458 408.923 679.931 409.659C678.997 410.967 678.343 412.475 677.968 414.182L621.23 679.807C620.851 681.75 621.006 683.433 621.696 684.859C621.954 685.392 622.287 685.889 622.695 686.35C623.103 686.852 623.562 687.282 624.072 687.64C625.347 688.538 626.939 688.987 628.847 688.987L648.378 688.987C649.698 688.987 650.939 688.772 652.1 688.342C653.286 687.903 654.389 687.239 655.409 686.35C656.274 685.625 657.001 684.81 657.591 683.906C658.378 682.699 658.92 681.333 659.218 679.807L679.237 587.034C679.46 587.456 679.689 587.875 679.923 588.291L679.944 588.328C684.447 596.286 691.177 602.984 700.136 608.421C708.192 613.276 718.681 616.075 731.601 616.815C729.642 617.26 727.789 617.919 726.044 618.792C724.791 619.418 723.594 620.155 722.451 621.001C718.219 624.256 714.069 630.278 710 639.067C687.376 690.988 657.998 726.633 621.865 746.001C585.895 765.37 544.635 775.054 498.086 775.054C451.026 775.054 415.475 763.292 391.434 739.767L391.405 739.739C388.184 736.585 385.171 733.22 382.363 729.644C358.763 699.207 352.985 650.623 365.029 583.892C374.958 526.6 386.921 470.61 400.918 415.923C417.031 349.354 444.863 300.933 484.414 270.659C498.091 260.177 512.579 251.5 527.877 244.628C557.001 231.546 589.062 225.005 624.062 225.005C670.612 225.005 707.559 235.177 734.902 255.523C738.615 258.285 742.04 261.321 745.177 264.63L745.178 264.631L745.179 264.632C765.141 285.691 773.434 317.811 770.059 360.991C770.059 369.597 772.165 375.611 776.376 379.033L776.406 379.058C776.568 379.178 776.732 379.296 776.898 379.411C781.211 382.431 786.581 383.94 793.008 383.94L849.893 383.94C854.272 383.94 857.919 382.908 860.835 380.842C861.929 380.067 862.92 379.147 863.809 378.081C864.259 377.545 864.685 376.993 865.086 376.423C867.738 372.667 869.347 368.174 869.912 362.944C873.953 341.392 874.401 320.393 871.256 299.946L871.255 299.943L871.255 299.942C870.22 293.214 868.796 286.545 866.982 279.937C865.045 272.875 862.663 266.001 859.837 259.315L859.817 259.269C851.961 240.701 840.678 223.583 825.967 207.915C805.947 186.593 779.417 169.992 746.377 158.11C713.499 146.066 674.03 140.044 627.969 140.044C566.608 140.044 513.955 151.356 470.01 173.98C446.59 186.037 425.527 200.659 406.822 217.847L406.822 217.848C390.429 232.911 375.847 249.946 363.076 268.95C335.732 309.64 315.387 357.004 302.041 411.04C295.368 439.686 288.532 469.715 281.533 501.128C274.535 532.378 268.675 561.675 263.955 589.019C256.631 629.709 256.143 666.574 262.49 699.614C268.005 728.179 278.251 753.55 293.226 775.727L293.228 775.73C295.489 779.076 297.856 782.351 300.332 785.552C301.926 787.582 303.568 789.572 305.255 791.521L305.257 791.523C323.729 812.857 347.804 829.34 377.48 840.972ZM731.601 616.815C733.925 616.948 736.327 617.014 738.808 617.014C743.945 617.014 748.878 616.716 753.604 616.118L738.076 616.118C735.802 616.118 733.644 616.35 731.601 616.815ZM131.025 692.245C133.688 694.089 136.99 695.01 140.93 695.01L179.406 695.01C182.427 695.01 185.219 694.468 187.781 693.384C189.747 692.553 191.578 691.402 193.273 689.932C195.078 688.361 196.596 686.607 197.828 684.671C199.352 682.276 200.438 679.603 201.086 676.651L280.969 297.354C281.876 292.704 281.45 288.795 279.69 285.626C279.429 285.157 279.139 284.705 278.82 284.268C278.177 283.303 277.426 282.47 276.566 281.77C274.295 279.92 271.271 278.995 267.492 278.995L229.016 278.995C226.807 278.995 224.688 279.296 222.659 279.897C219.781 280.75 217.082 282.207 214.562 284.268C212.364 286.001 210.591 287.989 209.244 290.233C207.96 292.374 207.063 294.748 206.555 297.354L125.891 676.651C125.027 680.587 125.26 684.027 126.59 686.972C127.064 688.022 127.677 689.009 128.43 689.932C129.214 690.819 130.079 691.59 131.025 692.245ZM596.784 366.233C594.749 366.233 593.093 365.742 591.815 364.758C591.416 364.452 591.054 364.097 590.729 363.694C590.557 363.462 590.398 363.222 590.254 362.973C589.303 361.343 588.94 359.37 589.166 357.053L594.44 335.374C594.725 333.914 595.223 332.582 595.936 331.375C596.527 330.375 597.265 329.462 598.151 328.635C599.29 327.57 600.532 326.805 601.878 326.341C602.918 325.983 604.019 325.803 605.182 325.803L629.987 325.803C632.2 325.803 633.986 326.342 635.345 327.42C635.785 327.769 636.18 328.174 636.53 328.635C636.992 329.198 637.358 329.802 637.628 330.446C638.232 331.886 638.354 333.529 637.995 335.374L633.209 357.053C632.972 358.269 632.566 359.391 631.991 360.418C631.304 361.645 630.375 362.737 629.205 363.694C628.009 364.636 626.732 365.316 625.375 365.734C624.294 366.067 623.162 366.233 621.979 366.233L596.784 366.233ZM449.965 613.01C447.995 613.01 446.344 612.549 445.012 611.628C444.54 611.3 444.107 610.915 443.715 610.471C443.339 610.01 443.032 609.516 442.795 608.991C442.13 607.519 442.013 605.799 442.445 603.831L499.184 338.206C499.481 336.68 500.024 335.314 500.811 334.107L500.811 334.106C501.401 333.202 502.128 332.388 502.992 331.663C504.012 330.774 505.115 330.111 506.301 329.671L506.302 329.671C507.463 329.241 508.703 329.026 510.023 329.026L529.164 329.026C531.128 329.026 532.722 329.502 533.946 330.454L533.947 330.455C534.386 330.796 534.777 331.199 535.121 331.663C535.402 332.01 535.643 332.379 535.844 332.768C536.622 334.272 536.804 336.085 536.391 338.206L480.043 603.831C479.719 605.307 479.176 606.643 478.414 607.841C477.798 608.809 477.039 609.686 476.137 610.471C475.289 611.206 474.374 611.781 473.391 612.197C472.109 612.739 470.714 613.01 469.203 613.01L449.965 613.01ZM547.565 613.01C545.595 613.01 543.944 612.549 542.612 611.628C542.14 611.3 541.707 610.915 541.315 610.471C540.938 610.01 540.632 609.516 540.395 608.991C539.73 607.519 539.613 605.799 540.045 603.831L580.377 414.182C580.632 412.879 581.08 411.693 581.722 410.623L581.722 410.622C582.395 409.5 583.282 408.506 584.381 407.639C585.641 406.609 586.99 405.88 588.429 405.454C589.445 405.153 590.504 405.003 591.608 405.003L610.846 405.003C612.735 405.003 614.248 405.465 615.383 406.39L615.384 406.391C615.813 406.741 616.189 407.157 616.51 407.639C616.669 407.856 616.813 408.082 616.943 408.315L616.945 408.318C617.825 409.903 618.038 411.857 617.584 414.182L577.643 603.831C577.319 605.307 576.776 606.643 576.014 607.841C575.398 608.809 574.639 609.686 573.737 610.471C572.889 611.206 571.973 611.782 570.991 612.197C569.709 612.739 568.313 613.01 566.803 613.01L547.565 613.01ZM734.804 584.592C747.001 584.592 757.55 581.884 766.45 576.466C766.908 576.188 767.362 575.901 767.812 575.608C770.123 574.1 772.333 572.47 774.442 570.719C780.71 565.513 786.084 559.233 790.566 551.878C795.151 544.384 798.914 536.591 801.857 528.5L801.857 528.499C802.8 525.906 803.659 523.282 804.433 520.628C805.735 516.591 806.777 512.717 807.558 509.007C808.404 505.296 809.088 501.422 809.609 497.385C811.171 486.188 811.366 475.738 810.195 466.038C809.236 458.053 806.646 451.33 802.423 445.87L802.421 445.867C801.48 444.65 800.458 443.496 799.355 442.405C793.365 436.415 783.99 433.421 771.23 433.421C759.029 433.421 748.216 435.978 738.79 441.092L738.77 441.103C737.891 441.58 737.025 442.079 736.171 442.6C729.894 446.457 724.341 450.985 719.512 456.186C716.678 459.238 714.093 462.522 711.757 466.038C705.507 475.478 701.047 485.146 698.378 495.042C697.336 499.273 696.197 504.319 694.96 510.178C693.788 516.038 692.812 521.246 692.03 525.803C691.017 531.598 690.673 537.354 690.996 543.073L690.996 543.074L690.997 543.078C691.193 546.546 691.635 550 692.323 553.44C693.414 558.667 695.319 563.362 698.039 567.525C700.028 570.569 702.452 573.329 705.312 575.803C712.148 581.663 721.978 584.592 734.804 584.592Z" clip-rule="evenodd" fill="#FFFFFF" fill-opacity="1.000000" fill-rule="evenodd"/>
</svg>
